<svg width="300" height="78" viewBox="0 0 300 78" fill="none" xmlns="http://www.w3.org/2000/svg">
<path d="M72 39L54 70.1769L18 70.1769L2.8944e-05 39L18 7.82308L54 7.82308L72 39Z" fill="#789F29"/>
<mask id="mask0_3_138" style="mask-type:alpha" maskUnits="userSpaceOnUse" x="0" y="7" width="72" height="64">
<path d="M72 39L54 70.1769L18 70.1769L2.8944e-05 39L18 7.82308L54 7.82308L72 39Z" fill="#789F29"/>
</mask>
<g mask="url(#mask0_3_138)">
<rect x="-5.05619" y="34.3483" width="54.2022" height="9.70786" rx="1.82022" stroke="#1C1B17" stroke-width="2.83146"/>
<rect x="24.6741" y="15.1348" width="11.3258" height="47.7303" rx="1.61798" fill="#789F29" stroke="#1C1B17" stroke-width="3.23595"/>
<rect x="36.0001" y="23.2247" width="8.08988" height="31.955" rx="1.61798" fill="#789F29" stroke="#1C1B17" stroke-width="3.23595"/>
</g>
<path d="M102.525 30.0324H120.025V47H112.812L111.952 39.7457C111.132 42.3414 109.67 44.2677 107.566 45.5246C105.462 46.7814 102.894 47.4098 99.861 47.4098C97.1014 47.4098 94.6423 46.7951 92.4838 45.5655C90.3526 44.336 88.6722 42.5737 87.4427 40.2785C86.2405 37.9834 85.6394 35.3057 85.6394 32.2455C85.6394 27.3547 87.1012 23.4885 90.0247 20.6469C92.9483 17.8053 97.4976 16.3845 103.673 16.3845C107.197 16.3845 110.298 16.9583 112.976 18.1058C115.681 19.2534 117.976 21.0294 119.862 23.4338C118.632 24.0623 116.228 25.3191 112.648 27.2044L111.624 27.7782C110.558 26.7126 109.315 25.9202 107.894 25.4011C106.473 24.8546 104.97 24.5814 103.386 24.5814C100.763 24.5814 98.8091 25.2782 97.5249 26.6716C96.2407 28.0378 95.5986 29.7318 95.5986 31.7537C95.5986 33.9396 96.2817 35.7019 97.6479 37.0407C99.0414 38.3796 101.159 39.049 104 39.049C105.23 39.049 106.419 38.8714 107.566 38.5162C108.741 38.161 109.725 37.5462 110.517 36.6719H102.525V30.0324ZM157.032 27.1634C157.032 29.5406 156.445 31.5488 155.27 33.1882C154.122 34.8276 152.142 36.0161 149.327 36.7538C149.655 37.191 149.887 37.5326 150.024 37.7785L156.663 47H145.516C144.313 44.7595 142.414 41.59 139.819 37.4916H133.794V47H124.122C124.34 41.6993 124.45 36.7402 124.45 32.1226C124.45 27.505 124.34 22.5458 124.122 17.2452H133.794V17.2862H142.196C147.715 17.2862 151.568 18.1742 153.754 19.9502C155.939 21.7262 157.032 24.1306 157.032 27.1634ZM133.794 25.1552V29.8274H139.327C141.649 29.8274 143.398 29.7591 144.573 29.6225C145.775 29.4586 146.609 29.2127 147.073 28.8848C147.538 28.5569 147.77 28.0788 147.77 27.4503C147.77 26.8492 147.551 26.3847 147.114 26.0569C146.677 25.729 145.857 25.4967 144.655 25.3601C143.453 25.2235 141.677 25.1552 139.327 25.1552H133.794ZM184.543 47C184.024 45.4426 183.327 43.489 182.453 41.1392H169.379L167.329 47H157.042L168.518 17.2452H183.6L195.158 47H184.543ZM180.117 34.7456C179.078 31.8767 178.013 29.0078 176.92 26.1388L175.936 23.4748C174.98 25.9612 173.573 29.7182 171.715 34.7456H180.117ZM230.133 24.9093H207.837V29.2127C209.23 29.24 211.321 29.2537 214.108 29.2537C218.916 29.2537 223.807 29.1717 228.78 29.0078V37.0407C223.807 36.8495 218.561 36.7538 213.042 36.7538C210.747 36.7538 209.012 36.7675 207.837 36.7948V47H198.165C198.383 41.6993 198.492 36.7402 198.492 32.1226C198.492 27.505 198.383 22.5458 198.165 17.2452H230.133V24.9093ZM258.057 25.4011C254.806 25.2372 252.402 25.1415 250.844 25.1142V39.131C252.429 39.1036 254.833 39.008 258.057 38.8441V47H234.245V38.8441C237.388 39.008 239.778 39.1036 241.418 39.131V25.1142C239.778 25.1415 237.388 25.2372 234.245 25.4011V17.2452H258.057V25.4011ZM297.367 25.8519C293.077 25.7153 288.911 25.6334 284.867 25.606V47H274.621V25.606C270.55 25.6334 266.396 25.7153 262.161 25.8519V17.2452H297.367V25.8519Z" fill="white"/>
<path d="M95.1406 64.5703L92.0469 74H89.5547L93.7812 62.625H95.3672L95.1406 64.5703ZM97.7109 74L94.6094 64.5703L94.3594 62.625H95.9609L100.211 74H97.7109ZM97.5703 69.7656V71.6016H91.5625V69.7656H97.5703ZM124.103 62.625V74H121.767V62.625H124.103ZM127.603 62.625V64.4609H118.322V62.625H127.603ZM155.245 67.2578V69.0859H149.307V67.2578H155.245ZM150.002 62.625V74H147.659V62.625H150.002ZM156.917 62.625V74H154.581V62.625H156.917ZM184.988 72.1719V74H179.262V72.1719H184.988ZM180.019 62.625V74H177.676V62.625H180.019ZM212.685 72.1719V74H206.63V72.1719H212.685ZM207.396 62.625V74H205.052V62.625H207.396ZM211.896 67.2578V69.0391H206.63V67.2578H211.896ZM212.677 62.625V64.4609H206.63V62.625H212.677ZM238.014 62.625V74H235.678V62.625H238.014ZM241.514 62.625V64.4609H232.233V62.625H241.514ZM264.062 62.625V74H261.726V62.625H264.062ZM291.571 70.2266H293.907C293.86 70.9922 293.649 71.6719 293.274 72.2656C292.905 72.8594 292.386 73.3229 291.72 73.6562C291.058 73.9896 290.261 74.1562 289.329 74.1562C288.6 74.1562 287.946 74.0312 287.368 73.7812C286.79 73.526 286.295 73.1615 285.884 72.6875C285.477 72.2135 285.168 71.6406 284.954 70.9688C284.741 70.2969 284.634 69.5443 284.634 68.7109V67.9219C284.634 67.0885 284.743 66.3359 284.962 65.6641C285.186 64.987 285.504 64.4115 285.915 63.9375C286.332 63.4635 286.829 63.099 287.407 62.8438C287.985 62.5885 288.631 62.4609 289.345 62.4609C290.293 62.4609 291.092 62.6328 291.743 62.9766C292.399 63.3203 292.907 63.7943 293.267 64.3984C293.631 65.0026 293.85 65.6901 293.923 66.4609H291.579C291.553 66.0026 291.462 65.6146 291.306 65.2969C291.149 64.974 290.912 64.7318 290.595 64.5703C290.282 64.4036 289.866 64.3203 289.345 64.3203C288.954 64.3203 288.613 64.3932 288.321 64.5391C288.03 64.6849 287.785 64.9062 287.587 65.2031C287.389 65.5 287.241 65.875 287.142 66.3281C287.048 66.776 287.001 67.3021 287.001 67.9062V68.7109C287.001 69.2995 287.045 69.8177 287.134 70.2656C287.222 70.7083 287.358 71.0833 287.54 71.3906C287.727 71.6927 287.967 71.9219 288.259 72.0781C288.556 72.2292 288.912 72.3047 289.329 72.3047C289.819 72.3047 290.222 72.2266 290.54 72.0703C290.858 71.9141 291.1 71.6823 291.267 71.375C291.438 71.0677 291.54 70.6849 291.571 70.2266Z" fill="white"/>
</svg>
