<svg width="40" height="35" viewBox="0 0 40 35" fill="none" xmlns="http://www.w3.org/2000/svg">
<path d="M11.7579 29.1667H17.5913V27.2222H13.7024V25.2778H17.5913V19.4444H11.7579V21.3889H15.6468V23.3333H11.7579V29.1667ZM25.369 29.1667H27.3135V19.4444H25.369V23.3333H23.4246V19.4444H21.4802V25.2778H25.369V29.1667ZM37.0357 15.6528V31.1111C37.0357 32.1806 36.6549 33.0961 35.8934 33.8576C35.1318 34.6192 34.2163 35 33.1468 35H5.9246C4.85516 35 3.93965 34.6192 3.17808 33.8576C2.4165 33.0961 2.03571 32.1806 2.03571 31.1111V15.6528C1.29034 14.9722 0.715112 14.0972 0.31002 13.0278C-0.0950727 11.9583 -0.103175 10.7917 0.285714 9.52778L2.32738 2.91667C2.58664 2.07407 3.04845 1.37731 3.7128 0.826389C4.37715 0.275463 5.14683 0 6.02183 0H33.0496C33.9246 0 34.6862 0.267361 35.3343 0.802083C35.9825 1.33681 36.4524 2.04167 36.7441 2.91667L38.7857 9.52778C39.1746 10.7917 39.1665 11.9421 38.7614 12.9792C38.3563 14.0162 37.7811 14.9074 37.0357 15.6528ZM23.8135 13.6111C24.6885 13.6111 25.3528 13.3113 25.8065 12.7118C26.2603 12.1123 26.4385 11.4398 26.3413 10.6944L25.2718 3.88889H21.4802V11.0833C21.4802 11.7639 21.707 12.3553 22.1607 12.8576C22.6144 13.36 23.1653 13.6111 23.8135 13.6111ZM15.0635 13.6111C15.8089 13.6111 16.4165 13.36 16.8864 12.8576C17.3563 12.3553 17.5913 11.7639 17.5913 11.0833V3.88889H13.7996L12.7302 10.6944C12.6005 11.4722 12.7707 12.1528 13.2406 12.7361C13.7105 13.3194 14.3181 13.6111 15.0635 13.6111ZM6.41071 13.6111C6.99405 13.6111 7.50446 13.4005 7.94196 12.9792C8.37947 12.5579 8.64683 12.0231 8.74405 11.375L9.81349 3.88889H6.02183L4.07738 10.4028C3.88294 11.0509 3.98826 11.7477 4.39335 12.4931C4.79845 13.2384 5.4709 13.6111 6.41071 13.6111ZM32.6607 13.6111C33.6005 13.6111 34.2811 13.2384 34.7024 12.4931C35.1237 11.7477 35.2209 11.0509 34.994 10.4028L32.9524 3.88889H29.2579L30.3274 11.375C30.4246 12.0231 30.692 12.5579 31.1295 12.9792C31.567 13.4005 32.0774 13.6111 32.6607 13.6111ZM5.9246 31.1111H33.1468V17.4028C32.9848 17.4676 32.8795 17.5 32.8309 17.5H32.6607C31.7857 17.5 31.016 17.3542 30.3517 17.0625C29.6873 16.7708 29.0311 16.3009 28.3829 15.6528C27.7996 16.2361 27.1353 16.6898 26.3899 17.0139C25.6445 17.338 24.8505 17.5 24.0079 17.5C23.1329 17.5 22.3147 17.338 21.5531 17.0139C20.7915 16.6898 20.119 16.2361 19.5357 15.6528C18.9848 16.2361 18.3447 16.6898 17.6156 17.0139C16.8864 17.338 16.1005 17.5 15.2579 17.5C14.3181 17.5 13.4674 17.338 12.7059 17.0139C11.9443 16.6898 11.2718 16.2361 10.6885 15.6528C10.0079 16.3333 9.33548 16.8113 8.67113 17.0868C8.00678 17.3623 7.25331 17.5 6.41071 17.5H6.19196C6.11095 17.5 6.02183 17.4676 5.9246 17.4028V31.1111Z" fill="white"/>
</svg>
