<svg width="52" height="52" viewBox="0 0 52 52" fill="none" xmlns="http://www.w3.org/2000/svg">
<rect width="52" height="52" rx="26" fill="#789F29"/>
<path d="M26 26C24.1438 26 22.5547 25.3391 21.2328 24.0172C19.9109 22.6953 19.25 21.1062 19.25 19.25C19.25 17.3938 19.9109 15.8047 21.2328 14.4828C22.5547 13.1609 24.1438 12.5 26 12.5C27.8562 12.5 29.4453 13.1609 30.7672 14.4828C32.0891 15.8047 32.75 17.3938 32.75 19.25C32.75 21.1062 32.0891 22.6953 30.7672 24.0172C29.4453 25.3391 27.8562 26 26 26ZM12.5 39.5V34.775C12.5 33.8188 12.7461 32.9398 13.2383 32.1383C13.7305 31.3367 14.3844 30.725 15.2 30.3031C16.9437 29.4312 18.7156 28.7773 20.5156 28.3414C22.3156 27.9055 24.1438 27.6875 26 27.6875C27.8562 27.6875 29.6844 27.9055 31.4844 28.3414C33.2844 28.7773 35.0563 29.4312 36.8 30.3031C37.6156 30.725 38.2695 31.3367 38.7617 32.1383C39.2539 32.9398 39.5 33.8188 39.5 34.775V39.5H12.5ZM15.875 36.125H36.125V34.775C36.125 34.4656 36.0477 34.1844 35.893 33.9312C35.7383 33.6781 35.5344 33.4813 35.2812 33.3406C33.7625 32.5813 32.2297 32.0117 30.6828 31.632C29.1359 31.2523 27.575 31.0625 26 31.0625C24.425 31.0625 22.8641 31.2523 21.3172 31.632C19.7703 32.0117 18.2375 32.5813 16.7188 33.3406C16.4656 33.4813 16.2617 33.6781 16.107 33.9312C15.9523 34.1844 15.875 34.4656 15.875 34.775V36.125ZM26 22.625C26.9281 22.625 27.7227 22.2945 28.3836 21.6336C29.0445 20.9727 29.375 20.1781 29.375 19.25C29.375 18.3219 29.0445 17.5273 28.3836 16.8664C27.7227 16.2055 26.9281 15.875 26 15.875C25.0719 15.875 24.2773 16.2055 23.6164 16.8664C22.9555 17.5273 22.625 18.3219 22.625 19.25C22.625 20.1781 22.9555 20.9727 23.6164 21.6336C24.2773 22.2945 25.0719 22.625 26 22.625Z" fill="#6D6E73"/>
</svg>
