<svg width="35" height="34" viewBox="0 0 35 34" fill="none" xmlns="http://www.w3.org/2000/svg">
<path d="M25 18.2439L18.0833 11.5268C17.2222 10.6976 16.4931 9.77845 15.8958 8.76951C15.2986 7.76057 15 6.66179 15 5.47317C15 3.95285 15.5347 2.66057 16.6042 1.59634C17.6736 0.532114 18.9722 0 20.5 0C21.3889 0 22.2222 0.186585 23 0.559756C23.7778 0.932927 24.4444 1.4374 25 2.07317C25.5556 1.4374 26.2222 0.932927 27 0.559756C27.7778 0.186585 28.6111 0 29.5 0C31.0278 0 32.3264 0.532114 33.3958 1.59634C34.4653 2.66057 35 3.95285 35 5.47317C35 6.66179 34.7083 7.76057 34.125 8.76951C33.5417 9.77845 32.8194 10.6976 31.9583 11.5268L25 18.2439ZM25 13.6L29.5417 9.16341C30.0694 8.63821 30.5556 8.07846 31 7.48415C31.4444 6.88984 31.6667 6.21951 31.6667 5.47317C31.6667 4.86504 31.4583 4.35366 31.0417 3.93902C30.625 3.52439 30.1111 3.31707 29.5 3.31707C29.1111 3.31707 28.7431 3.39309 28.3958 3.54512C28.0486 3.69715 27.75 3.9252 27.5 4.22927L25 7.21463L22.5 4.22927C22.25 3.9252 21.9514 3.69715 21.6042 3.54512C21.2569 3.39309 20.8889 3.31707 20.5 3.31707C19.8889 3.31707 19.375 3.52439 18.9583 3.93902C18.5417 4.35366 18.3333 4.86504 18.3333 5.47317C18.3333 6.21951 18.5556 6.88984 19 7.48415C19.4444 8.07846 19.9306 8.63821 20.4583 9.16341L25 13.6ZM10 27.3659L21.5833 30.5171L31.5 27.4488C31.3611 27.2 31.1597 26.9858 30.8958 26.8061C30.6319 26.6264 30.3333 26.5366 30 26.5366H21.5833C20.8333 26.5366 20.2361 26.5089 19.7917 26.4537C19.3472 26.3984 18.8889 26.2878 18.4167 26.122L14.5417 24.8366L15.4583 21.6024L18.8333 22.722C19.3056 22.8602 19.8611 22.9707 20.5 23.0537C21.1389 23.1366 22.0833 23.1919 23.3333 23.2195C23.3333 22.9154 23.2431 22.6252 23.0625 22.3488C22.8819 22.0724 22.6667 21.8927 22.4167 21.8098L12.6667 18.2439H10V27.3659ZM0 33.1707V14.9268H12.6667C12.8611 14.9268 13.0556 14.9476 13.25 14.989C13.4444 15.0305 13.625 15.0789 13.7917 15.1341L23.5833 18.7415C24.5 19.0732 25.2431 19.6537 25.8125 20.4829C26.3819 21.3122 26.6667 22.2244 26.6667 23.2195H30C31.3889 23.2195 32.5694 23.6756 33.5417 24.5878C34.5139 25.5 35 26.7024 35 28.1951V29.8537L21.6667 34L10 30.7659V33.1707H0ZM3.33333 29.8537H6.66667V18.2439H3.33333V29.8537Z" fill="white"/>
</svg>
